<?xml version="1.0" encoding="UTF-8"?><svg id="Layer_3" xmlns="http://www.w3.org/2000/svg" viewBox="0 0 1133.25 1133.25"><path d="M1125.11,434.85c-.17-.91-.28-1.62-1.32-1.89l-5.91-.11-.35-14.5-7.32-1.5-.35-7.28-7.68-.75-.35-7.28h-8.03s-.35-7.27-.35-7.27l-8.13-1.5-.35-7.28-7.11-.11-.91-7.92-7.68-.75-.42-7.2-15.23-.43-.75-7.68-23.34-.34-.74-7.69h-7.22s-.81-16.05-.81-16.05h-15.25l-.09-7.14c-1.78-2.08-42.14-.25-48.07-.89l-.75,7.68-15.3.35-.35,6.48-6.34.78-1.33-7.26h-8.03s-.99-7.03-.99-7.03l-6.69-1.74-.35-7.28h-40.13v8.03h-15.25l-.8,8.03h-16.05v8.03s-8.03,0-8.03,0l-.35,7.28-7.68.75-.75,7.68-14.55.7-.75,6.88-7.68.75-.35,8.08h-14.85c-2.33,1.09-.63,7.46-1.2,8.03h-8.03s-.35,7.27-.35,7.27l-7.32,1.5-.35,7.28-7.14.08-.85,7.59-6.44.38c1.65,4.73-6.37,4.85-9.17,4.04-1.05-.3.21-2.73-2.48-3.28-3.63-.74-9.34.57-13.26.01-.51.51,1.05,6.22-1.2,7.23h-15.65l-.35,7.27-7.32,1.5-.39,7.24-7.99.84-.91,7.12-5.47.15c-.44,2.41-2.12,14.57.33,15l6.86-.6.04-4.78,6.64-.82,1.28-2.88,6.05-.31.44-2.46h2.4s.14,2.22.14,2.22l4.6,1.07c.12,5.46,1.79,9.95-5.53,8.75v16.05l-8.08.35-1.5,8.13-7.28.35v7.23s-5.62,0-5.62,0v8.83h12.44c.49,0,.9-2.21,1.77-2.42,1.9-.47,6.06.73,7.52-.33.76-4.62,1.66-3.69,5.97-4.5l1.88,1.35.12,5.1h8.03c-.6-8.41-.05-8.88,8.02-7.23v-8.03s8.03,0,8.03,0v-5.62s14.84,0,14.84,0l1.12-1.32.08-16.34,6.74.06,1.79-3.17,7.54-.09v-5.62s15.25,0,15.25,0l.35-7.27,10.09-.75v-5.63c1.58-.16,3.64.39,5.12-.12,1.08-.37,1.01-2.09,1.86-2.31,2.32-.6,14.9.62,15.5.02l.75-7.68,14.55-.7.75-7.68h16.85v8.03s7.23,0,7.23,0v8.03s8.03,0,8.03,0v8.03s7.91.91,7.91.91l.11,7.11h7.23s.89,15.96.89,15.96l7.14.09.75,7.68,8.08.35v7.23s7.67.75,7.67.75l.35,8.08h7.23s.75,7.67.75,7.67l7.28.35v8.03s-6.48.35-6.48.35l-.75,6.88-8.07.37-.71,8.12-22.81-.36-1.2,1.2-.11,6.71-14.5.35-.75,7.68h-15.25v-7.23s6.87-.75,6.87-.75l-.45-23.33h-6.42s0-15.65,0-15.65c-1.31-2.68-7.43-.31-8.05-.75l-.78-7.68h-8.03c-.63-.62,1.2-7.65-1.2-8.82h-38.93v8.83h-16.05v7.22h-14.05c-2.38,0-2.19,7.09-2,8.83h-8.03s0,8.03,0,8.03l-7.28.35-1.5,7.32-6.48.35-.77,7.69-7.14-.36-.86,8.37-8.08.35v8.03s-7.22,0-7.22,0v8.03s-12.44,0-12.44,0c-.73,0-2.91-1.45-4.41-.8v-3.22s-8.83,0-8.83,0c1.12,6.65-7.47,10.27-10.8,15.31l-1.63.74c-.86-.02-1.59-1.01-2.45-1.17-3.63-.65-10.08-2.31-13.66-3.6-7.3-2.64-14.07-7.4-21.9-8.19-5.32-17.87-9.71-36.02-14.61-54.01-2.33-8.55-7.31-20.02-8.74-28.18-.79-4.51.59-10.4-.16-15.09-.82-2.49-8.05-.88-10.33-1.31v-5.63s-4.7-.11-4.7-.11l-.91-7.12h-6.42s0-95.91,0-95.91c-1.88-2.19-5.62.19-5.62-4.01v-20.47h-8.03s-.35-7.27-.35-7.27l-8.13-1.5-.35-7.27h-40.13v16.05h-8.03s0,8.03,0,8.03h-7.23s-.74,7.67-.74,7.67c-1.67,1.17-6.63-.02-8.08-1.66v-14.05h-7.22v-15.65l-4.01-1.2v-106.75h9.64s0,10.43,0,10.43l4-.8v4.81h107.55c.03-5.68,1.62-4.17,5.65-6.15l.42-87-6.88-.75-.75-6.07-28.14-1.15v-14.45s-7.22,0-7.22,0v-8.03s-8.03,0-8.03,0v-7.23s-40.9-.83-40.9-.83l-.14-3.45-1.21-1.22-86.97.69v4.82s-22.87,0-22.87,0c-2.25,1.01-.69,6.72-1.2,7.23h-7.23s0,12.44,0,12.44c0,.1-.86,1.78-.97,1.85l-7.01,1c1.1,9.07-1.63,22.32-.04,30.86.17.92.29,1.62,1.32,1.91l5.44-.62,1.14,1.24c.84,5.8-1.07,46.22,1.04,47.52l6.76.86.35,7.27h16.05v4.82s8.03,0,8.03,0v107.55h-8.03v22.87l-8.48,1.96-.35,7.27h-16.05l-.05,7.98-6.8.28-1.07,1.08c.88,8.45-1.58,20.84-.12,28.78.17.91.28,1.62,1.32,1.89l6.71.11.8,16.06,7.28.35.76,6.87c3.18-.86,6.09-.57,8.37,1.67l94.36-.06v46.55h-13.24c-1.82,1.3-1.14,3.67-1.2,5.62h-8.03c-.65.68-.57,13.23-.99,15.46-2.34,12.41-8.87,28.8-12.4,41.37-3.79,13.5-7.03,27.19-10.62,40.75l-37.46,14c-2.98.28-10.49-9.59-12.91-11.93l-30.02-.48-.75-9.29h-8.03s-.11-6.3-.11-6.3l-7.92-.91v-7.23s-7.1-.11-7.1-.11l-1.02-8.62-7.13-.09-.89-7.14-7.14-.08-.75-7.68-7.28-.35c.8-7.32-.36-9.56-8.03-8.83v-7.23s-16.05,0-16.05,0l-.07-7.51c-.51-1.61-2.19-1.25-3.5-1.36-11.9-1.04-25.3.85-37.36.03-.63.62,1.2,7.66-1.2,8.83h-14.85l-.35,7.27-7.68.75v39.33h-23.27s0-7.22,0-7.22h-16.05l-.84-8.79-7.19-.04-.75-6.88-7.24-.39-.84-7.99h-7.23s0-8.02,0-8.02h23.28l.87-8.77,7.21.4.74-7.69h8.03s0-8.03,0-8.03c.57-.57,6.94,1.13,8.03-1.2v-14.85l7.68-.75.35-7.28h7.23s0-15.25,0-15.25l8.02-.81.36-7.26,7.68-.75.35-8.08,7.68-.75.75-6.88,8.08-.35v8.03s14.84,0,14.84,0c2.33,1.09.63,7.46,1.2,8.03h8.03s0,8.02,0,8.02h24.08v8.03h14.85c2.33,1.08.63,7.48,1.2,8.03l16.86.8v23.28h8.83s0,8.02,0,8.02l6.3.12.47,7.15,6.81.82.44,11.21,7.65.77v11.24l13.98.71c2.15-.51,1.02-6.16,1.26-7.94l8.08.35.75,6.88c5.91-1.38,10.53,3.14,16.15,1.13l.36-8.41-7.68-.75-.75-7.68-8.08-.35v-7.23s-4.82,0-4.82,0l.68-15.53-1.18-1.28c-8.74,3.39-3.75-8.79-5.03-13.98l5.98-2.06-.14-5.63.91-1.63,5.2.79v-5.62h14.05l1.13-3.64,6.83-1.08,1.3,3.89,7.2.03v6.43s16.05,0,16.05,0l-.03-9.6-5.19-1.63-.47-5.55c-3.58-1.63-8.33.33-11.15-2.09v-14.05l-5.27-.78.45-4.03h-34.11l-1.7-3.26-13.96.05-.75,5.27-8.08.36v-3.22s-8.03.01-8.03.01v-3.22s-8.03.01-8.03.01v-7.23s-7.22,0-7.22,0l-.35-8.08-7.73-1.1-.75-6.88-6.88-.75-.47-6.75-1.08-1.33h-14.85l-.35-7.27-7.72-1.1-.14-5.71-1.01-1.17h-15.65l-.37-8.09-7.31-1.49-.38-5.64-7.99-.83v-7.23c-7.21.8-8.82-.82-8.02-8.03l-16.06-.79-.11-6.71-1.2-1.2-14.74-.11c-.57-.57,1.13-6.94-1.2-8.03h-46.15l-.35,7.27-7.16.86-1.2,1.21-.11,14.74-7.14.08-.54,7.19,7.68.74v7.23c.62.63,7.65-1.2,8.82,1.2v15.65h7.22v14.85l-1.3,1.04-5.88.21-.04,7.18h-8.03v-28.5c0-.22-.95-2.76-1.3-2.86h-6.68s-.81-8.42-.81-8.42l-7.27-.35v-7.23s-16.85,0-16.85,0l-.75-7.68-52.65-.08-.99.91-.19,6.85h-16.85l-.75,7.68-7.28.35v7.23s-15.65,0-15.65,0c-2.33,1.09-.63,7.46-1.2,8.03l-6.88.75-1.13,7.73-14.76-.34c-2.4.78-.96,6.64-1.31,8.72h-15.26s-.83,7.99-.83,7.99l-7.98.04v8.02s-7.24,0-7.24,0l-.88,7.94-7.94.09v14.85c-1.07,2.32-7.5.64-8.03,1.2l-.88,7.14-6.34.09v32.91h8.02c-1.03,2.86-.81,5.08.09,7.94l7.14.09v8.03s8.03,0,8.03,0l.08,7.14,47.56.14c2.33.69.99,6.76,1.32,8.77h32.1v7.23s7.23,0,7.23,0l.75,7.68,8.08.35.11,7.92,7.57,1.67.34,7.28h8.03s0,8.03,0,8.03h7.23s.35,7.27.35,7.27l7.68.75.08,7.14,8.74.89c-.8,2.77-1.32,5.21.12,7.91l7.91.12-.43,6.45,8.46,1.58-.8,7.21,8.03.8.11,13.94c.87,2.66,6.28.22,7.56,2.07l1.15,15.29h-8.03v24.89h8.03v15.25h14.85c2.33,1.09.63,7.46,1.2,8.03h8.03s0,8.02,0,8.02h32.1v-8.03h15.25l.76-6.87,13.97-.43c2.31-.72,1.03-6.01,1.32-7.96l7.97-.06.41-8.02,7.68-.74.75-6.88,7.33-.7,1.1-7.73,6.88-.75c.18-2.51-.95-5.96,1.59-7.58l14.46-.45v-7.23s8.83,0,8.83,0l.11,6.31,7.91,2.12v31.7h7.17s.85,6.43.85,6.43h5.62s.34,4.07.34,4.07c3.11,1.23,4.96.51,4.5,4.73l37.13.19,24.12,13.44.53,2.45h-39.73c-2.28,2.12-.84,5.96-1.2,8.83h-20.83v455.88h357.4c1.21-1.98.26-4.92.52-7.22h5.62v7.22h34.51v-143.66h0v-1.59s0-38.66,0-38.66h.1l.7-271.97h-16.45c-2.28-2.12-.84-5.96-1.2-8.83h-45.75v-2.39c.78-.06,1.69-.06,2.38-.41,7.31-3.7,14.93-6.37,22.3-9.81,1.08-.51,1.02-1.9,2.53-2.29,8.25-2.17,22.3,1.34,30.05.21,1.22-.18,4.73-1.96,6.61-2.1l.34-4.88h6.43s0-3.21,0-3.21c.51-.55,6.96,1.12,8.03-1.2v-38.12h7.23s0-7.21,0-7.21l15.29.34.74,6.88,15.19.86.94,7.08,7.83,1,.11,7.11h8.03s0,8.03,0,8.03h8.03s.75,8.47.75,8.47l7.33.7.75,6.88h7.23c.57.56-1.13,6.93,1.2,8.02h14.85v8.03h48.16v-8.03s7.68-.75,7.68-.75l.35-7.28,7.99-.04.04-54.13,1.32-1.89,6.71-.11v-15.25l7.64-.73.38-8.1h8.03s.38-7.29.38-7.29l7.29-.69.35-8.08,8.03.8v-8.03s7.28-.35,7.28-.35l.75-7.68,7.28-.35.75-7.68,7.28-.35.81-7.62,7.19-.39,1.16-7.77,6.72-.85.92-7.1h24.08v-8.03h54.98c2.4-1.17.57-8.21,1.2-8.83l7.25.46.78-7.68h8.03s.35-7.27.35-7.27l6.88-.75c-1.19-9.12,1.58-22.31,0-30.91ZM726.16,472.62c-2.14-5.8-.99-9.37,5.58-6.78l.1,7.14-5.67-.35ZM526.36,147.92v-16.85l3.91.9c-.76,4.75,2.99,16-3.91,15.95ZM534.76,152.7l.83-.77h12.84l1.21,4.01c-2.84.61-19.21,2.88-14.88-3.23ZM554.46,147.91v4.02s-3.89-.12-3.89-.12l-.92-3.89h4.82ZM553.85,131.43c.31-1.99,4.61-1.22,4.61.03v15.65l-3.9-1.32-.71-14.37ZM551.13,126.94c-5.32,2.23-11.24-.08-16.73.91v-4.81s16.77.86,16.77.86l-.03,3.03ZM548.83,137.48l-5.61.81.35-4.86,4.52-.41.75,4.46ZM537.6,172.8v-4.02s3.22,0,3.22,0v-5.62s63.4,0,63.4,0v4.43s4.81-.42,4.81-.42v5.62s-71.43,0-71.43,0ZM593.04,134.63c.46,3.63.58,14.07-4.88,12.49v-16.05l3.1.17c-.37,1.96,1.61,2.11,1.78,3.4ZM596.99,147.12l-.87,4.73c-6.27,1-4.01-5.62.87-4.73ZM596.99,156.75v-4.82h16.05v4.02c-5.39.06-10.69.46-16.05.8ZM605.82,132.66l5.58.05c3.09,8.13-7.41,7.83-5.58-.05ZM618.26,130.26c.59.74,1.95.84,2.42,1.59.63,1,.68,11.44.4,13.25-.36,2.33-3.14,1.93-3.92,1.1-.59-.63-.2-13.96,1.1-15.95ZM612.25,147.12l4.06.35.75,3.65c-2.74.44-5.22-.92-4.81-4ZM597.03,127.01l-.04-3.97h14.05c5.39,7.31-9.71,4.57-14,3.97ZM605.82,111.8l-.09,4.73c-1.94.52-3.86.81-5.9.92-15.4.87-38.57,1.14-53.8-.05-1.74-.14-3.42-.88-5.19-.83l-.04-4.78h65.01ZM525.56,81.7c.2-.63,1.31-1.23,2.04-1.22l46.07.86.04,6.38,6.48.35.75,7.68,7.28.35.75,6.87h-63.41v-21.27ZM511.11,176.81h-33.71l-.81-32.9h-8.02v-14.05l1.2-1.2h40.13l1.2,1.2v46.95ZM429.24,127.85v-7.23c-.62-.63-7.65,1.2-8.82-1.2v-23.68c3.07.44,5.74,1.56,8.72-.12l.17-7.05,7.14-.88.02-7.2h16.05l.92,7.92,7.55-.66-.44-6.45h56.18s0,28.49,0,28.49l-6.07,1.99c-.44.6,1.95,7.51-.75,8.85h-47.35c-2.1,1.71-.98,4.8-1.2,7.22h-16.05v-23.28l7.68-.75c.21-2.61,1.47-14.39-.97-15.19l-7.51-.11v15.25h-7.22v24.08h-8.03ZM437.67,177.61c-2.25-1.01-.69-6.72-1.2-7.23-2.42-.23-5.51.9-7.23-1.2v-32.51h32.1l.35,7.27,6.87.75v32.91h-30.9ZM460.55,304.43l.34-6.48,3.67-.75v-107.55h27.69l1.2,1.2v106.35h8.03v16.05h-48.16v-8.83s7.23,0,7.23,0ZM452.52,377.46h-23.28v-8.03s-7.49.04-7.49.04c-2.78-.65-.25-21.64-.54-24.92h8.03s0-7.22,0-7.22h8.03v8.03s8.02,0,8.02,0v16.05h7.22v16.05ZM516.73,377.06c0,.44-1.36,1.28-2.03,1.25l-54.15-.84v-16.85h-8.03v-14.85c-1.71-2.1-4.8-.98-7.22-1.2v-15.25h7.23s0-8.03,0-8.03h56.98v15.65c1.71,2.1,4.8.98,7.22,1.2v38.93ZM409.18,1092.98v22.07h-4.01v-24.88l4.82.81c.3.81-.81,1.68-.81,2ZM410.02,1072.15c.17,3.21-2.29,2.91-4.85,2.78v-385.14l4.82-.12c-.09,4.68.1,9.39.03,14.08-1.8,122.43,1.25,245.7,0,368.4ZM725.41,689.67l5.63.41-.02,336.69h0v40.12h0v3.59s0,3.64,0,3.64h-5.62v-384.45ZM725.41,1090.98h5.62v23.28h-5.62v-23.28ZM941.31,353.38h16.05v-8.83h46.15c2.06.64.95,6.89,1.2,8.83,2.08.36,7.94-1.09,8.72,1.31l-.24,13.18-8.13,1.5-.35,8.08-7.69.77-.43,7.15-7.14.09v8.03s-8.02,0-8.02,0v-15.25h-8.03v46.55h-8.03s-.74-7.69-.74-7.69l-7.28-.34v-15.25h-8.83s-.07-7.95-.07-7.95l-5.81-.16-1.34-1.12v-38.93ZM989.47,417.59v14.85c-1.73,1.89-6.3,1.89-8.03,0v-14.85h8.03ZM924.53,369.12c0-2.16,1.42-5.13.72-7.71h8.03v23.28l-7.96.78c-1.05-.81-.04-9.47-.04-11.65,0-1.63-.76-3.1-.76-4.7ZM843.68,409.45l-6.71.11v8.03s-14.84,0-14.84,0l-1.2-1.2v-14.85l-7.11-.11c-1.7-1.06-.91-14.08-.12-16.74l-8.07-.35c-1.29-.9-1.27-5.87.45-6.87h23.68l.35,7.27,6.73.9,1.01,7.82,5.84.18,1.2,1.2v13.42s-1.2,1.2-1.2,1.2ZM861.04,360.6l-.35,7.28-6.35.87-1.33,1.08v14.85h-8.03s0-7.23,0-7.23c-.57-.57-6.94,1.13-8.03-1.2v-14.85h8.03s0-8.03,0-8.03c3.43-.78,13.67,1.36,16.07-.38,2.03-1.48-.54-4.45.05-6.32.72-2.29,12.96-1.18,15.99-1.32.08-2.66-.06-5.37,0-8.03l23.28.81.11-7.51c.78-2.39,6.64-.96,8.72-1.32v8.03s15.7.75,15.7.75l.35,6.48h-8.03s-.03,7.99-.03,7.99c-3.35-.6-13.4,1.44-15.5.74-.63-.21-1.05-.55-1.21-1.22l-.22-6.2-1.21-1.2c-7.36-.8-14.71.35-21.96.69-.08,2.41.37,4.91-.35,7.28l-7.68.75v7.23s-8.03,0-8.03,0ZM925.66,481.8c-2.4-1.17-.57-8.21-1.2-8.83h-7.23s0-14.84,0-14.84c-.32-.47-.65-.74-1.2-.9-2.87-.84-11.42.36-14.85-.3v-14.85c-1.09-2.33-7.46-.63-8.03-1.2l-.75-7.68-7.28-.35v-15.25s-8.03,0-8.03,0v-8.03s-8.03,0-8.03,0v-8.03s-7.22,0-7.22,0v-32.1h14.05l1.2-1.2v-14.85h23.28l.75,7.67,7.7.31.37,8.07h7.23s0,22.87,0,22.87c1.17,2.4,8.21.57,8.83,1.2v8.03s9.63,0,9.63,0v8.03s14.44,0,14.44,0v8.03s7.27.35,7.27.35l.75,7.68h8.03s0,16.05,0,16.05h8.03v16.05c11.45-2.73,7.77,6.66,7.68,14.5l-7.68.75c-.36,2.08,1.09,7.94-1.31,8.72l-14.77.48-.78,7.67c-.54.02-1-.81-1.19-.81h-14.05v-7.22h-15.65ZM673.01,570.32c.76.84.89,1.68.45,2.74-.91,2.18-11.23,13.28-13.84,11.46l-5.64-21.65c.81-.64,17.61,5.88,19.03,7.45ZM596.99,440.87h-56.18v-38.12l1.27-1.11,45.85.05,1.84,1.07v30.9l6.87.75.35,6.47ZM549.64,305.23h24.08v8.03h14.85l1.2,1.2v13.64c-.6.82-.7.87-1.64.87-4.54.01-9.72-.99-14.42-.47-.51-.51,1.05-6.22-1.2-7.23h-14.85v-8.03s-8.03,0-8.03,0v-8.03ZM529.26,378.17c-1.31-.05-2.92.01-3.7-1.11v-39.73h14.05c.24,0,.62,1.02,1.2.8v-15.65l1.2-1.2h14.85l.78,7.68,15.32-.1.75,8.48h16.05v56.18h-48.96v-15.25c-3.68-.68-7.91.05-11.55-.09ZM481.41,561.26l-6.46,23.24c-2.24,1.58-15.45-11.08-15.06-13.86.63-4.47,17.15-8.68,21.52-9.38ZM268.72,529.15c1.75.21,5.89-.66,6.88.76l.35,7.28h-7.23v-8.03ZM324.11,377.47v-8.03s15.65,0,15.65,0c1.99.61,1,6.19,1.2,8.03h7.23s-.12,6.7-.12,6.7l-1.22,1.23-5.87-.71-1.17,8.08-6.87.75v15.25h-8.03s0-7.23,0-7.23c-.63-.63-7.66,1.2-8.83-1.2v-22.87h8.03ZM220.57,336.53v-15.25l7.2-.03.03-8h23.68c2.47.77.1,6.03,1.28,7.95l22.69.19c1.87.61,1.28,3.13,1.32,4.7l2-3.2,2,2.4.79-2.4.74,6.05,9.71.37v8.03s8.07.35,8.07.35l.79,6.84,7.18.85.05,7.18,7.99.84-.4,14.46c-1.42,2.42-7.63-.42-7.63,1.99v14.85h-7.22v-22.87l-1.35-1.1-7.11-.05-.36-8.09h-8.03s0-7.22,0-7.22l-7.28-.35-.75-7.68h-30.9c-2.33,1.09-.63,7.46-1.2,8.03l-15.25-.81c.93-7.09-1.12-8.61-8.03-8.02ZM211.79,401.19l.75-7.68h16.05v-14.85l7.95-1.28.43-15.22,7.68-.75v-16.05h31.3l.75,7.68,7.28.35v8.03s8.47.77,8.47.77l-.45,31.33h-16.05v16.05h-8.03s0,8.03,0,8.03h-8.03s0,15.25,0,15.25c-2.64.3-6.12-1-8.03,1.2v15.65h-7.23s-.35,7.27-.35,7.27l-8.13,1.5-.35,7.28h-7.23s-.75,6.87-.75,6.87l-7.33.7-.75,8.48h-28.49c-.22,0-2.76-.95-2.86-1.3l-.7-7.18-7.73-1.1-.35-7.28h-7.23s.78-7.69.78-7.69l6.45.47v-24.88l8.08-.35.75-6.88h7.23s0-8.03,0-8.03h8.83s0-16.05,0-16.05l7.27-.35ZM140.31,345.76l1.2-1.2h38.12l.8,8.47c.87,0,2.06.36,2.81.36h13.24v8.02s7.23-.8,7.23-.8c-.21,8.14,2.14,16.43.06,24.45l-7.29.43v8.03s-8.02,0-8.02,0l-.82,8.02,7.97.86-.29,6.42-6.92,1.1-1.56,7.67h-6.42s-.81,8.04-.81,8.04c-2.67-.97-4.54-.91-7.21,0v-40.93h-8.03v-15.25c-3.15-.72-5.61-1.06-8.74.09l-.15,7.88-7.16.86-.8-17.66h-7.23s0-14.84,0-14.84ZM147.53,448.49v-15.65h-7.22v-15.25h7.23c.57-.57-1.13-6.93,1.2-8.03h14.05l.69,46.04c-5.88,3.74-9.23.94-7.91-5.91-.57-.57-6.94,1.13-8.03-1.2ZM100.18,472.98h-8.03s0,8.03,0,8.03c-2.87-.36-6.72,1.07-8.83-1.21v-14.05h-7.22v-14.85c-1.09-2.33-7.46-.63-8.03-1.2.1-8.01-.13-16.07,0-24.08-2.93.06-5.9-.05-8.83,0v24.09c.57.57,6.94-1.13,8.03,1.2v14.85h-7.23s0,7.22,0,7.22h-23.68c-2.25-1.01-.69-6.72-1.2-7.23l-7.68-.75-.35-6.48-7.99-.84-.04-38.09,1.32-1.89,6.71-.11.75-8.48,7.28-.35v-7.23s8.45-.73,8.45-.73l.38-7.3h13.24c.29,0,1.31-.81,1.88-.94l1.02-7,7.13-.08.8-6.66c.28-.46,2.49-1.38,2.82-1.38h13.24v-8.83s7.23,0,7.23,0v-7.23s15.65,0,15.65,0c2.33-1.09.63-7.46,1.2-8.03h8.03s0-8.02,0-8.02h15.25v23.28l8.03.8.06,7.97,7.9.93.06,7.17,7.14.08c.34,1.92,2.2,6.96-.43,7.82l-6.71.11v8.03s-8.03,0-8.03,0l-.75,7.68c-4.51.71-9.15.28-13.7.35.03,1.52-.81,3-.81,4.47,0,3.4.17,6.84.12,10.27l1.2,1.2,5.91.11-.39,15.33-6.84.73-.75,8.48-7.28.35v7.23s-8.03,0-8.03,0v7.23s-7.67.75-7.67.75l-.35,7.28ZM196.49,569.29l.12-5.91c.88-2.71,6.22-.14,7.56-2.07l.35-7.28h8.03s0-8.03,0-8.03h7.23c0-2.66,0-5.35,0-8.02-4.81.07-9.71-.36-14.5.35l-.75,7.68h-8.03c-.57.56,1.13,6.93-1.2,8.02h-15.65l-.03-8-7.19-.03v-8.83s-8.08-.35-8.08-.35l-.75-6.88h-8.03s-.35-8.07-.35-8.07l-7.68-.75-.07-7.95-7.2-.42-.74-6.88-7.68-.75-.35-7.28h-7.23s-.35-8.07-.35-8.07l-8.47-.76.45-6.47-6.91-1.11-.77-7.67,7.28-.35.71-7.3,8.07-.37v-8.84s7.22,0,7.22,0v-7.23s8.07.35,8.07.35l.75,7.68h7.23s.35,7.27.35,7.27l7.32,1.5.35,7.28h8.03c-.6,6.9.94,8.98,8.03,8.02l.35,7.28,7.68.75.75,7.68,7.28.35.35,6.47,7.3,1.5,1.13,6.93,7.16.46.91,8.72,7.68.75.35,7.28h7.23c0,2.66,0,5.35,0,8.02,10.52-.15,21.08.15,31.61-.05l1.3,8.07h16.05l-.38,7.27c-.54.94-3.28-.14-4.76-.01-4.49.39-3.66,4.42-3.7,7.99l-7.24.34-1.13,7.74-6.5.72-1.12,7.71-38.17.35-1.93-1.34-.09-7.48h-7.22ZM349.34,577.36c-.71-2.36-.29-4.86-.35-7.28-2.51,0-5.58-1.59-8.47.76l-.35,7.27h-8.03c-.62,2.07,1.95,6.38.04,7.67-2.28,1.53-12.66-.54-16.09-.45l-.35,8.08-6.88.75-.75,6.88-7.28.35v8.03s-8.83,0-8.83,0v8.03s-7.22,0-7.22,0v8.03s-16.85,0-16.85,0v8.83s-7.23,0-7.23,0v7.23s-40.13,0-40.13,0c.26-.79-.8-1.74-.8-2.01v-14.05h-16.05c-.37-7.58.23-15.11.61-22.66.15-3.04-1.54-6.21.99-9.1l38.53-.34v-7.23s8.07-.35,8.07-.35l.81-7.61,7.16-.06.37-7.26,7.66-1.57v-7.23s8.03,0,8.03,0l.35-7.28,7.68-1.96v-39.73l15.51.71,1.23-1.22.46-6.76c1.17-1.67,12.04-.55,14.72.23l.98,7.85c6.16-1.26,18.31,3.6,15.94-6.72-.91-2.75-6.93-.12-8.38-2.08l.47-7.26h-24.08v8.03h-24.08v-8.03s6.87-.75,6.87-.75l.35-7.28h8.03c.57-.56-1.13-6.93,1.2-8.02h31.7v8.03h16.05v7.22s7.22,0,7.22,0v8.83s8.08.35,8.08.35l.79,6.84,7.99.84v8.03s8.03,0,8.03,0l8.03,8.03.35,7.28c6.64,1.52,8.59-.7,7.68,7.98h-8.03s0,8.83,0,8.83h-8.03s-.35,7.27-.35,7.27l-7.68.75-.91,7.92-7.11-.69c.48,7.06.63,11.06-7.68,8.07ZM412.44,560.91l-8.08.35v8.84s-8.02,0-8.02,0l-.05,7.97-7.17.05-.88,7.94-7.14.08-.89,7.14-7.09.13-.37,7.22c-6.78,2.94-9.22-.73-8.49-7.26l-7.14-.09-.81-5.81c.89-2.74,7.01-.15,8.41-2.07l.3-6.92,7.72-1.11.35-7.28h8.03s0-8.83,0-8.83l7.69-.75-.47-6.47h24.88l-.75,6.87ZM418.95,625.33l-1.37-11.08,18.1-18.06c1.46-3.97,7.69-9.24,12.01-7.25.55.26,6.83,7.51,8.33,8.93,4.82,4.56,9.66,9.24,14.53,13.97,10.25,9.94,20.3,19.95,30.97,29.43.97,4.67,3.01,12.83-4.01,11.58l-.49,2.37-18.44.03-59.64-29.92ZM548.84,1081.75c-1.09,2.33-7.46.63-8.03,1.2-.3,2.64,1.01,6.12-1.2,8.03h-78.25v-160.52h87.48v151.29ZM548.84,890.33h-87.48v-176.57h87.48v176.57ZM555.3,641.16c-.48,4.38-5.2,1.84-4.4,7.63-1,1.51-5.49.85-6.84-.5l-42.67-43.29c-1.33-2.2,1.72-2.48-3.14-4.09l19.4-69.64c2.55-14.63,7.69-28.49,10.93-42.85.48-2.14-.32-4.86.57-6.65,1.21-2.42,6.5-.49,5.24-5.61l17.63.02c-.33,3.39.53,3.45,3.29,4.48v160.48ZM612.64,1090.98h-23.68v-160.52h24.08l-.4,160.52ZM613.5,856.67c-1.14,1.62-21,.73-24.53.75v-151.69h23.68l1.24,149.66-.39,1.28ZM590.21,648.78c-4.72,2.9-2.96-2.76-6.86-.83l-.35-3.27-3.67-.75v-166.54c.59-.81.84-.97,1.83-1.03,2.38-.13,6.43.57,9.02.6,3.82.04,7.9-.72,11.93.13l.92.68c6.31,22.06,10.86,44.62,16.67,66.8,4.93,18.84,11.35,37.39,15.76,56.47-.07,1.12-3,4.5-3.94,5.59-12.43,14.43-28.65,27.68-41.31,42.15ZM715.41,623.09c-3.76,1.68-6.84,4.41-10.33,6.53-12.03,7.28-29.03,16.45-41.71,22.49-6.47,3.08-17.18,4.41-24.26,3.07-1.98-.37-2.06-3.87-6-2.42.5-2.74-.87-9.14.41-11.24.42-.68,2.33-1.45,3.23-2.39,12.95-13.39,26.03-26.38,38.87-39.76,3.38-3.52,7.14-6.88,10.7-10.24,1.87-1.05,5.39.2,6.95,1.46,5.78,4.67,14.37,15.06,19.59,20.95.92,1.04,3.11,1.48,3.61,3.25l-1.05,8.3ZM779.99,593.37h-7.23s0,16.05,0,16.05l-7.69-.75.13-6.52-7.74-1.1-.75-6.88-6.48-.35-1.5-7.32-8.08-.35v-8.03s-7.67-.75-7.67-.75l-.7-7.33-6.88-.75-.75-7.68-8.08-.35c.22-2.42-.89-5.52,1.21-7.23h14.85v-8.03s8.08.35,8.08.35l.75,7.68,7.28.35.75,6.88,7.12.91.11,7.11,7.99.84.04,7.99h8.03s0,8.03,0,8.03h7.23s0,7.22,0,7.22ZM780.9,538.5l.35,29.95-.98,1.52-6.71.12-.35-7.28-8.14-1.5.46-7.27h-8.83s0-8.04,0-8.04l-7.68-.75.45-15.31,7.28-.35.75-7.68h7.23s.35-8.07.35-8.07c1.53-2.17,7.42.35,7.67.05l.03-7.56,1.18-1.09c.32-.03.6.63.8.63h14.05c.64-5.53-1.51-10.72,6.86-8.22l.79-.56.37-7.27,16.11-.35c1.85-1.27-1.45-8.48,1.96-8.48h22.07v8.03s8.03,0,8.03,0l.35,8.08,7.68.75v8.03h-38.93c-2.17,1.72-.84,4.75-1.27,7.16l-15.1.95-.08,7.95h-8.83s0,14.84,0,14.84c-1.52,2.92-7-1.13-7.91,1.72ZM1020.77,489.83h-7.23s0,8.03,0,8.03h-8.03s0,8.03,0,8.03h-8.03s-.35,7.27-.35,7.27l-7.68.75-.35,7.28-7.68.75-.35,7.28-7.68.75-.35,7.28-7.68.75-.35,7.28-7.68.75-.77,7.69-7.25-.47v7.23s-8.03,0-8.03,0v-7.23s-8.03,0-8.03,0v-7.23c-1.32-.04-2.67.05-4.01,0-.02,1.34.03,2.68,0,4.02h-4.02s0,4.01,0,4.01h8.03s0,22.87,0,22.87c-1.09,2.33-7.46.63-8.03,1.2v7.23s-32.1,0-32.1,0l-.77-7.68-7.25.45v7.23s7.23,0,7.23,0l.05,7.98,31.54.17,1.2,1.2.11,6.71,6.71.11,1.2,1.2-.24,22.01-7.68.75-.35,8.08-7.68.75v7.23s-8.03,0-8.03,0v8.03s-16.05,0-16.05,0c-.3-2.64,1-6.12-1.2-8.03h-14.85v-7.22h-14.85c-2.43-1.29-.46-6.97-1.29-7.94l-7.94-.88-.04-7.19-7.99-.84-.75-7.68-7.28-.35v-8.03s-8.03,0-8.03,0v-7.23s-8.03,0-8.03,0l-.77-8.5-15.27-.34v-7.22s-8.04,0-8.04,0l-.35-8.08c-1.38-1.99-7.34,1-7.68-2.76l.84-29.26,6.84-.79.35-7.28,7.68-.75,1.1-7.73,7.27.45.07-7.96,31.55-.11,1.25,7.72,7.27.35v30.9c1.09,2.33,7.46.63,8.03,1.2l.02,7.2,7.98.86.02,8,7.28-.35c1.2-.84,1.2-7.29,0-8.13l-7.27-.35v-14.45c2.28-.31,5.37.47,7.47-.02.65-.15.22-1.46,1.7-1.65,2.33-.31,14.38.59,14.91.07v-7.23c8,.2,16.07-.25,24.07,0,0-2.67,0-5.36,0-8.03l7.11-.11c2.01-2.1-.81-6.43.89-7.54l8.07-.36.38-8.1,7.63.07c.7-.8-1.24-7.57,1.21-8.83h14.85v-7.22h14.85c2.41-1.18.57-8.19,1.21-8.83l7.93-.09.15-7.08,7.97-.86.76-30.94h6.52s.75,7.68.75,7.68l7.68.75.35,7.28,7.28.35,1.5,7.32,6.47.35v16.05ZM1101.83,457.72v15.25h-24.08l-.92-7.11-7.11-.92.09-7.14,7.14-.89v-23.28l-7.68-.78-.02-7.33c-2.52-1.39-5.07-.02-7.56.09.03,2.47,0,4.82-.45,7.24l7.68.78-.35,15.3-7.68.75v16.05h-7.22v15.25h-16.85l-.35-7.27-6.88-.75-.84-15.21-7.64-.79-.35-7.27h-16.05v-22.87c1.17-2.4,8.21-.57,8.83-1.2.06-5.34-.09-10.72,0-16.06-4,.07-10.16-.11-14.04-.81-.91-.16-1.5-.38-2.01-1.2v-13.64l1.64-.87,5.59.48v-8.03s8.07-.35,8.07-.35l.75-7.68h23.28l.34-8.08,7.69-.75v8.84s8.07.35,8.07.35l.75,7.68h14.85c2.8,1.42-.16,6.73,1.2,7.64l7.65.35.38,8.06,7.25-.47,1.59,8.49,6.47-.46,1.5,8.13,7.27.35v16.05l7.14.08.09,24h-7.23Z"/></svg>